<svg width="152" height="36" viewBox="0 0 152 36" fill="none" xmlns="http://www.w3.org/2000/svg">
<g clip-path="url(#clip0_65_1365)">
<mask id="mask0_65_1365" style="mask-type:alpha" maskUnits="userSpaceOnUse" x="0" y="9" width="34" height="25">
<path d="M0 9.32788H33.8737V33.5695H0V9.32788Z" fill="white"/>
</mask>
<g mask="url(#mask0_65_1365)">
<path fill-rule="evenodd" clip-rule="evenodd" d="M18.769 13.0593L0 31.0807C3.45547 34.3985 9.0592 34.3985 12.5116 31.0807L33.8727 10.5704C28.9438 8.30823 22.8567 9.13526 18.77 13.0593" fill="#223155"/>
</g>
<path fill-rule="evenodd" clip-rule="evenodd" d="M40.1311 16.5767L25.0263 31.0798C25.8478 31.8688 26.8231 32.4947 27.8966 32.9218C28.9701 33.3488 30.1207 33.5686 31.2826 33.5686C32.4446 33.5686 33.5952 33.3488 34.6686 32.9218C35.7421 32.4947 36.7174 31.8688 37.5389 31.0798C41.6257 27.1587 42.4871 21.3141 40.1311 16.5767Z" fill="#223155"/>
<path fill-rule="evenodd" clip-rule="evenodd" d="M51.1399 6.00811C47.6845 2.69027 42.0807 2.69027 38.6273 6.00811L17.2662 26.5184C22.1991 28.7786 28.2832 27.9535 32.3699 24.0295L51.1399 6.00811ZM19.8563 0L13.599 6.00811C9.51523 9.92919 8.6539 15.7738 11.0089 20.5093L19.303 12.5455L19.8563 12.0143C20.678 11.2255 21.3299 10.289 21.7747 9.25828C22.2194 8.22756 22.4483 7.12281 22.4483 6.00713C22.4483 4.89146 22.2194 3.78671 21.7747 2.75599C21.3299 1.72527 20.678 0.78878 19.8563 0Z" fill="#00C896"/>
<path fill-rule="evenodd" clip-rule="evenodd" d="M61.1577 18.9865V19.0254C61.1577 22.2888 63.9424 24.9625 67.3837 24.9625C68.2013 24.963 69.0111 24.8088 69.7667 24.5087C70.5223 24.2086 71.2089 23.7685 71.7872 23.2135C72.3656 22.6586 72.8244 21.9996 73.1374 21.2743C73.4505 20.549 73.6116 19.7716 73.6116 18.9865C73.6116 15.7192 70.8249 13.0066 67.3837 13.0066C66.5658 13.0063 65.7559 13.1608 65.0003 13.4613C64.2447 13.7617 63.5582 14.2022 62.9799 14.7576C62.4017 15.313 61.9432 15.9723 61.6305 16.6979C61.3179 17.4235 61.1572 18.2012 61.1577 18.9865M61.1577 26.853V33.871C61.1577 34.9316 60.2559 35.7975 59.1503 35.7975C58.0002 35.7975 57.1003 34.9316 57.1003 33.871V18.9875C57.1003 13.5563 61.7303 9.11275 67.3837 9.11275C73.0786 9.11275 77.667 13.5563 77.667 18.9865C77.667 24.4546 73.0776 28.8583 67.3837 28.8583C65.0489 28.8583 62.8763 28.112 61.1577 26.853M83.6882 16.8596H95.527C94.6676 14.1099 92.0441 12.8509 89.5868 12.8509C86.8437 12.8509 84.5475 14.5419 83.6892 16.8596M99.8711 18.8259C99.8711 19.8913 98.9682 20.7553 97.8222 20.7553H83.6882C84.5475 23.1148 86.8437 24.8068 89.5868 24.8068C90.5282 24.8068 92.2103 24.7299 94.1772 23.5079C95.1196 22.9212 96.3883 23.4709 96.8787 24.4137C97.3702 25.3964 96.8382 26.4219 95.8958 27.0116C93.1922 28.7396 91.1027 28.7026 89.5868 28.7026C83.8908 28.7026 79.3035 24.2561 79.3035 18.8269C79.3035 13.3588 83.8908 8.95416 89.5868 8.95416C94.545 8.95416 99.8711 12.4179 99.8711 18.8259M117.964 18.9865C117.964 15.6823 115.342 12.8889 111.899 12.8889C108.458 12.8889 105.549 15.6823 105.549 18.9865C105.549 22.2888 108.458 24.8078 111.899 24.8078C115.342 24.8078 117.964 22.2888 117.964 18.9865ZM121.979 18.9865V26.6953C121.979 27.8376 121.12 28.6627 119.931 28.6627C119.11 28.6627 117.965 27.8376 117.965 26.6953C116.2 28.112 114.234 28.6627 111.899 28.6627C106.123 28.6627 101.534 24.5305 101.534 18.9865C101.534 13.4386 106.124 9.03199 111.9 9.03199C117.676 9.03199 121.979 13.4386 121.979 18.9865M136.215 10.9215C136.215 11.982 135.315 12.8879 134.167 12.8879C133.349 12.8876 132.539 13.0422 131.784 13.3427C131.028 13.6432 130.342 14.0838 129.763 14.6392C129.185 15.1947 128.727 15.8542 128.414 16.5799C128.101 17.3056 127.941 18.0834 127.941 18.8688V26.7732C127.941 27.8366 127.04 28.7405 125.935 28.7405C125.392 28.7395 124.871 28.532 124.487 28.1633C124.102 27.7946 123.886 27.2948 123.884 26.7732V18.8688C123.884 13.4006 128.515 8.99405 134.167 8.99405C135.315 8.99405 136.215 9.85805 136.215 10.9215M151.666 22.8395C151.666 23.9817 150.805 28.7396 144.823 28.7396C141.954 28.7396 138.595 27.5214 137.489 24.7669C137.408 24.6122 137.408 24.4137 137.408 24.2172C137.408 23.2325 138.348 22.2907 139.496 22.2907C139.798 22.2945 140.094 22.3632 140.363 22.4919C140.633 22.6206 140.869 22.8059 141.054 23.034C141.994 24.2989 142.979 24.8068 144.743 24.8876C147.364 24.8876 147.567 23.1537 147.607 22.8395C147.607 21.5045 146.175 20.9538 144.206 20.7553C141.709 20.481 137.407 19.182 137.407 14.8533C137.407 11.0782 140.727 8.83643 144.332 8.83643C145.684 8.83643 147.035 9.1507 148.264 9.74032C148.673 9.9388 151.665 11.2348 151.665 13.6361C151.581 14.6188 150.681 15.5237 149.576 15.5237C148.591 15.5237 148.183 14.8932 147.691 14.1858C147.116 13.0835 145.398 12.7303 144.25 12.7303C142.734 12.7303 141.423 13.5573 141.423 14.8932C141.423 17.7284 145.848 15.8778 149.246 18.3939C150.721 19.5352 151.665 21.2292 151.665 22.8404" fill="#223155"/>
</g>
<defs>
<clipPath id="clip0_65_1365">
<rect width="152" height="36" fill="white"/>
</clipPath>
</defs>
</svg>
