<?xml version="1.0" encoding="UTF-8" standalone="no"?>
<svg
   version="1.0"
   width="267.000000pt"
   height="225.000000pt"
   viewBox="0 0 267.000000 225.000000"
   preserveAspectRatio="xMidYMid meet"
   id="svg26"
   sodipodi:docname="c68dd6a07fd0c6d5d83f0d815b08de43.svg"
   xmlns:inkscape="http://www.inkscape.org/namespaces/inkscape"
   xmlns:sodipodi="http://sodipodi.sourceforge.net/DTD/sodipodi-0.dtd"
   xmlns="http://www.w3.org/2000/svg"
   xmlns:svg="http://www.w3.org/2000/svg">
  <defs
     id="defs30" />
  <sodipodi:namedview
     id="namedview28"
     pagecolor="#ffffff"
     bordercolor="#666666"
     borderopacity="1.0"
     inkscape:pageshadow="2"
     inkscape:pageopacity="0.0"
     inkscape:pagecheckerboard="0"
     inkscape:document-units="pt" />
  <g
     transform="translate(0.000000,225.000000) scale(0.100000,-0.100000)"
     fill="#000000"
     stroke="none"
     id="g24">
    <path
       d="M1275 2015 c-22 -8 -56 -32 -75 -54 -19 -22 -57 -49 -84 -61 l-49 -20 36 39 c48 53 63 81 43 81 -55 0 -118 -52 -151 -125 -12 -27 -41 -68 -64 -90 l-42 -40 25 50 c14 28 29 66 33 85 l6 34 -34 -21 c-46 -29 -75 -83 -82 -153 -3 -36 -14 -74 -29 -99 l-24 -40 0 69 c1 39 -3 70 -9 71 -5 1 -20 -16 -32 -37 -25 -43 -30 -105 -12 -151 6 -17 8 -51 3 -88 l-7 -60 -17 55 c-9 31 -22 65 -28 75 -10 19 -11 18 -21 -8 -21 -56 -14 -117 23 -177 20 -33 36 -75 40 -105 l6 -50 -26 45 c-49 86 -74 101 -74 45 0 -55 23 -98 75 -141 26 -21 58 -61 72 -89 l25 -50 -28 26 c-39 35 -76 59 -91 59 -10 0 -10 -8 2 -37 23 -55 43 -73 120 -108 39 -18 83 -47 99 -63 l29 -31 -52 19 c-28 11 -63 20 -77 20 -25 0 -25 0 -7 -24 36 -48 79 -68 153 -73 45 -2 87 -12 120 -27 l50 -23 -69 5 c-38 2 -76 0 -87 -6 -16 -9 -15 -12 17 -31 54 -33 94 -36 168 -13 48 15 78 19 111 14 l44 -7 -55 -17 c-30 -10 -63 -24 -74 -32 -18 -13 -17 -15 21 -26 53 -16 107 -1 164 44 24 19 59 37 78 41 18 3 41 9 50 12 9 3 6 -3 -8 -12 -39 -28 -90 -78 -90 -88 0 -17 80 0 115 24 18 13 46 44 63 69 17 27 52 59 82 78 l53 33 -33 -37 c-34 -39 -65 -102 -56 -112 3 -3 27 8 53 24 48 30 72 70 88 147 3 15 19 42 36 60 22 23 29 26 24 12 -3 -11 -9 -42 -12 -69 -8 -60 8 -59 52 3 27 39 30 51 31 124 0 47 7 99 16 122 l15 40 5 -69 c7 -87 22 -103 44 -50 23 53 21 110 -4 166 -15 32 -22 66 -21 105 l0 58 13 -42 c18 -57 56 -109 67 -91 25 39 -1 132 -52 184 -23 24 -69 119 -69 143 0 2 13 -14 29 -35 28 -40 78 -80 88 -71 2 3 -1 23 -7 46 -14 52 -57 102 -108 125 -24 11 -54 38 -77 69 -21 29 -30 45 -19 36 26 -23 100 -59 119 -59 23 0 18 16 -16 55 -38 42 -78 65 -115 65 -31 0 -96 30 -134 61 -22 18 -22 19 -3 10 12 -6 49 -14 83 -18 73 -7 77 4 18 48 -42 31 -45 31 -128 25 -58 -4 -99 -2 -130 8 l-44 13 49 5 c28 3 64 11 80 18 l30 12 -40 20 c-50 23 -105 18 -170 -17 -32 -17 -63 -25 -94 -24 -41 0 -43 1 -21 10 13 6 40 22 58 36 26 19 31 28 21 34 -20 12 -48 10 -94 -6z m140 -155 c35 -33 69 -60 74 -60 5 0 16 -3 25 -6 30 -11 18 36 -18 72 -34 34 -34 34 -7 28 44 -10 74 -38 90 -84 16 -44 72 -110 93 -110 21 0 1 81 -29 113 l-28 30 48 -33 c49 -35 52 -40 61 -124 3 -26 16 -66 28 -88 l23 -40 14 34 c10 25 11 42 3 72 l-10 39 23 -29 c31 -39 35 -66 18 -125 -16 -53 -11 -139 8 -139 14 0 49 62 50 90 0 23 1 23 9 5 18 -41 11 -86 -21 -132 -31 -44 -52 -133 -33 -133 19 1 54 37 68 70 l15 35 0 -45 c0 -51 -6 -61 -67 -109 -40 -31 -72 -76 -72 -102 0 -18 52 -1 83 29 31 29 33 22 9 -27 -14 -28 -30 -40 -87 -62 -64 -26 -105 -57 -105 -80 0 -17 65 -9 99 12 l34 20 -32 -40 c-18 -23 -38 -41 -44 -41 -102 -3 -147 -9 -176 -24 l-35 -18 29 -15 c18 -10 44 -13 74 -10 l45 5 -39 -24 c-48 -29 -56 -29 -130 -4 -61 21 -138 19 -129 -4 7 -19 60 -46 91 -46 37 -1 11 -17 -32 -20 -47 -3 -51 -2 -94 34 -42 35 -99 60 -126 54 -24 -5 18 -66 58 -84 l32 -15 -43 6 c-55 7 -75 20 -97 62 -32 58 -115 119 -115 84 0 -21 22 -67 43 -90 l22 -23 -42 21 c-47 24 -55 35 -72 106 -13 53 -56 119 -72 110 -15 -10 -10 -73 7 -108 l16 -32 -36 34 c-36 35 -36 36 -36 117 0 79 -13 134 -32 134 -15 0 -30 -53 -26 -92 2 -21 2 -38 0 -38 -2 0 -12 20 -22 43 -21 47 -18 73 14 135 17 33 22 122 7 122 -16 0 -52 -53 -59 -85 -6 -30 -6 -30 -13 -5 -14 49 -8 68 35 122 44 52 66 94 66 124 0 24 -21 16 -62 -26 l-40 -40 7 38 c9 47 17 56 70 82 44 21 105 81 105 101 0 20 -74 -1 -104 -29 l-28 -27 21 42 c25 51 27 52 107 69 70 14 132 50 116 66 -6 6 -33 8 -60 7 -42 -3 -48 -2 -39 10 24 29 69 40 122 29 52 -10 135 3 135 21 0 15 -71 43 -96 38 -37 -7 -18 11 25 24 41 12 40 12 126 -35 32 -17 115 -22 115 -7 0 14 -60 61 -78 61 -15 0 -15 2 -2 10 32 21 61 10 125 -50z"
       id="path2" />
    <path
       d="M480 415 c0 -69 2 -76 25 -91 27 -17 76 -14 102 7 16 14 19 159 3 159 -6 0 -10 -28 -10 -64 0 -68 -14 -96 -50 -96 -36 0 -50 28 -50 96 0 36 -4 64 -10 64 -6 0 -10 -32 -10 -75z"
       id="path4" />
    <path
       d="M680 400 c0 -72 3 -90 15 -90 10 0 15 16 17 63 l3 62 44 -62 c25 -35 49 -63 53 -63 4 0 8 41 8 90 0 53 -4 90 -10 90 -6 0 -10 -27 -10 -60 0 -33 -3 -60 -7 -60 -5 0 -26 27 -48 60 -56 83 -65 79 -65 -30z"
       id="path6" />
    <path
       d="M890 400 l0 -93 51 5 c66 7 84 25 84 88 0 63 -18 81 -84 88 l-51 5 0 -93z m94 54 c21 -20 21 -88 0 -109 -9 -9 -28 -15 -43 -13 -24 3 -26 7 -29 57 -2 29 -1 60 2 67 7 19 51 18 70 -2z"
       id="path8" />
    <path
       d="M1090 400 c0 -53 4 -90 10 -90 6 0 10 37 10 90 0 53 -4 90 -10 90 -6 0 -10 -37 -10 -90z"
       id="path10" />
    <path
       d="M1170 400 c0 -73 3 -90 15 -90 10 0 15 11 15 35 0 30 3 35 24 35 19 0 27 -8 36 -35 6 -19 18 -35 26 -35 12 0 12 5 0 34 -13 30 -13 36 0 47 8 6 14 26 14 45 0 41 -21 54 -84 54 l-46 0 0 -90z m100 55 c6 -8 9 -23 5 -35 -5 -15 -15 -20 -41 -20 -32 0 -34 2 -34 35 0 32 3 35 29 35 16 0 34 -7 41 -15z"
       id="path12" />
    <path
       d="M1360 400 l0 -90 60 0 c33 0 60 4 60 10 0 6 -20 10 -45 10 -43 0 -45 1 -45 30 0 28 3 30 35 30 19 0 35 5 35 10 0 6 -16 10 -35 10 -32 0 -35 2 -35 30 0 29 2 30 45 30 25 0 45 5 45 10 0 6 -27 10 -60 10 l-60 0 0 -90z"
       id="path14" />
    <path
       d="M1573 480 c-43 -17 -58 -94 -28 -137 17 -24 71 -39 104 -28 34 11 24 27 -12 20 -45 -9 -80 20 -80 65 0 45 35 74 80 65 37 -7 46 9 11 19 -30 8 -48 7 -75 -4z"
       id="path16" />
    <path
       d="M1720 480 c0 -5 11 -10 25 -10 23 0 24 -3 27 -77 2 -50 7 -78 16 -81 9 -3 12 17 12 77 l0 81 31 0 c17 0 28 4 24 10 -3 6 -35 10 -71 10 -36 0 -64 -4 -64 -10z"
       id="path18" />
    <path
       d="M1910 400 l0 -90 54 0 c69 0 84 18 19 22 -44 3 -48 5 -48 28 0 21 5 26 33 28 43 4 41 22 -4 22 -33 0 -35 2 -32 28 3 25 7 27 51 30 65 4 50 22 -19 22 l-54 0 0 -90z"
       id="path20" />
    <path
       d="M2080 400 l0 -93 52 5 c62 6 88 32 88 88 0 56 -26 82 -88 88 l-52 5 0 -93z m91 60 c15 -8 19 -21 19 -60 0 -52 -15 -70 -59 -70 -19 0 -21 6 -21 70 0 64 2 70 21 70 11 0 29 -5 40 -10z"
       id="path22" />
  </g>
</svg>
